HIERARCHY
ROOT hip
{
  OFFSET 0.0 0.0 0.0
  CHANNELS 6 Xposition Yposition Zposition Zrotation Yrotation Xrotation
  JOINT torso
  {
    OFFSET 0.0 0.0 0.0
    CHANNELS 3 Zrotation Xrotation Yrotation
    JOINT neck
    {
      OFFSET -31.42098999999993 328.8025209999999 74.3554680000002
      CHANNELS 3 Zrotation Xrotation Yrotation
      JOINT head
      {
        OFFSET 3.3519900000001144 303.81732099999994 206.53942900000015
        CHANNELS 3 Zrotation Xrotation Yrotation
        End Site
        {
          OFFSET 0.0 0.0 0.0
        }
      }
    }
    JOINT left_collar
    {
      OFFSET -31.42098999999993 328.8025209999999 74.3554680000002
      CHANNELS 3 Zrotation Xrotation Yrotation
      JOINT left_upper_arm
      {
        OFFSET -124.490479 -8.162841999999841 8.226441000000023
        CHANNELS 3 Zrotation Xrotation Yrotation
        JOINT left_forearm
        {
          OFFSET -253.595764 -1.5758060000000569 105.0729980000001
          CHANNELS 3 Zrotation Xrotation Yrotation
          JOINT left_hand
          {
            OFFSET -269.48803699999996 0.1478270000000066 -55.346191999999974
            CHANNELS 3 Zrotation Xrotation Yrotation
            End Site
            {
              OFFSET 0.0 0.0 0.0
            }
          }
        }
      }
    }
    JOINT right_collar
    {
      OFFSET -31.42098999999993 328.8025209999999 74.3554680000002
      CHANNELS 3 Zrotation Xrotation Yrotation
      JOINT right_upper_arm
      {
        OFFSET 162.02484099999998 0.46441600000002836 2.2303470000001653
        CHANNELS 3 Zrotation Xrotation Yrotation
        JOINT right_forearm
        {
          OFFSET 240.01246700000004 -25.835875999999985 121.34179699999959
          CHANNELS 3 Zrotation Xrotation Yrotation
          JOINT right_hand
          {
            OFFSET 252.48539699999992 18.910399999999868 -67.53466800000001
            CHANNELS 3 Zrotation Xrotation Yrotation
            End Site
            {
              OFFSET 0.0 0.0 0.0
            }
          }
        }
      }
    }
  }
}
MOTION
Frames: 16
Frame Time: 0.01
-519.9279701537124 166.75740365866668 749.7213279051668 32.127533680030446 -32.1020203209728 -48.34400790386151 -0.880194767259171 6.533518501606481 0.7833680422112993 -17.133530796299155 12.530371330465535 10.473280642068005 0.0 0.0 0.0 7.73466514985453 -2.512200117949833 22.579881539525875 -19.626465078209602 -21.893556819500628 -52.57618238094496 2.71850856098548 -0.676932631668594 4.856349554835275 0.0 0.0 0.0 4.476584131667494 -0.11885963464308227 1.3627691067743786 -3.616149508982076 30.091592579072035 84.96408235512918 -23.893636441513312 -3.0569169307233315 23.173910755147766 0.0 0.0 0.0
-520.0061146283311 166.77102907925862 749.7842204374483 32.119637293731564 -32.09153803801271 -48.34452421078395 -0.880465166734246 6.531248473609641 0.7832079858877334 -17.132502562217333 12.541142133072647 10.471473052859247 0.0 0.0 0.0 7.74227289776405 -2.513594054053536 22.582618825503154 -19.630961047930736 -21.90106787207132 -52.582709588670966 2.729354020213582 -0.6796224112171232 4.855440992201029 0.0 0.0 0.0 4.476772888162084 -0.1189499443998595 1.3648045212121382 -3.6128517696062157 30.080358876645118 84.96083839799681 -23.888329397655994 -3.056534357426382 23.174409680748813 0.0 0.0 0.0
-520.0845476040921 166.78492996338153 749.8456855240729 32.10985607759594 -32.07891844366485 -48.342642065956184 -0.8799840379706014 6.525846224176805 0.7826353243599454 -17.13196018499961 12.553115136055627 10.469840126238344 0.0 0.0 0.0 7.749827531849106 -2.5149749551990492 22.58530980483177 -19.635424969601257 -21.90845235356605 -52.58899033713965 2.7396872289736436 -0.6821755493357186 4.8541954555575355 0.0 0.0 0.0 4.476904052781862 -0.11904746214887242 1.3670467596673128 -3.609124513842076 30.068317234612444 84.95791172157202 -23.882374649899162 -3.0561503493066633 23.174646158303535 0.0 0.0 0.0
-520.1630680993253 166.79924974642404 749.9058663691027 32.098307653247915 -32.06423253293219 -48.33843769142427 -0.8787856252789805 6.517388691155147 0.78166276753123 -17.13196263031966 12.566360644564739 10.468411068929536 0.0 0.0 0.0 7.757162075112571 -2.5163065319164053 22.587852758321812 -19.639799248335972 -21.91561726493688 -52.5949500556785 2.749359144779649 -0.6845559953311576 4.852664998729766 0.0 0.0 0.0 4.476923087254728 -0.11914643021901386 1.3693922234356286 -3.6050235804543354 30.05560602318476 84.95529881921557 -23.875822292004255 -3.055759129462175 23.174682405513906 0.0 0.0 0.0
-520.2414393306143 166.81415806415586 749.9648844361313 32.08515830623389 -32.04760570972438 -48.33204255106407 -0.8769240426056574 6.506032832755917 0.7803135948040241 -17.132546452191175 12.580919744938349 10.467204147524736 0.0 0.0 0.0 7.764105152044947 -2.5175499207607195 22.590131702731142 -19.644015930716797 -21.922458450596253 -52.60051583269918 2.758239619239818 -0.6867327437354482 4.850913033216755 0.0 0.0 0.0 4.476777476549858 -0.11924026683656883 1.3717165661346586 -3.6006078901428524 30.04238190764732 84.95300811176288 -23.86874974160428 -3.0553572201688217 23.17457575854937 0.0 0.0 0.0
-520.3193928095305 166.82984522479984 750.0228365770148 32.070617914351615 -32.029213895157014 -48.3236393254989 -0.8744718726104411 6.492010609852098 0.7786209905934046 -17.133724762312315 12.596803759612635 10.466226108433762 0.0 0.0 0.0 7.770485227943813 -2.5186645228626108 22.592018353271868 -19.647999259379084 -21.92886346706595 -52.60561634909505 2.7662217615678872 -0.6886808586638302 4.84901156725396 0.0 0.0 0.0 4.476417744032246 -0.11932172432797626 1.3738778013791808 -3.59593695706037 30.028813981977965 84.95106046086961 -23.861259785153045 -3.054943488099783 23.174377539301435 0.0 0.0 0.0
-520.3966333077179 166.84651564470522 750.0797929865204 32.054933582933785 -32.009278131390865 -48.31345656492914 -0.871518168617973 6.475621847595983 0.7766270938677992 -17.13548712724025 12.61399453279027 10.465472094435976 0.0 0.0 0.0 7.776135210262526 -2.5196089811197333 22.593374703667884 -19.651668914812117 -21.93471521399061 -52.61018175917377 2.7732258215604375 -0.6903823655401362 4.847038142246871 0.0 0.0 0.0 4.47579828005862 -0.11938307619994092 1.3757201737896245 -3.5910688885314315 30.015078139786517 84.9494885480745 -23.85347763200959 -3.054519045390212 23.1741325288026 0.0 0.0 0.0
-520.4728445609338 166.86438048407214 750.1357960133527 32.03838225691628 -31.988057889750664 -48.30176225406977 -0.8681659397031243 6.457225277005016 0.7743817981345648 -17.13780036870078 12.632445424347114 10.464926055063826 0.0 0.0 0.0 7.780897185487819 -2.520342265546622 22.594056221564575 -19.654943722951522 -21.939896149698754 -52.61414371408544 2.7792024152077377 -0.6918269721111339 4.84507268737877 0.0 0.0 0.0 4.474878069622007 -0.11941633131629356 1.37707870046726 -3.5860589598164982 30.001351954414325 84.94833517436074 -23.845547043958216 -3.054087017304117 23.17387899760067 0.0 0.0 0.0
-520.5476955806882 166.88364976319443 750.190859878047 32.021262596161755 -31.96584332303574 -48.28885653747585 -0.8645292087891112 6.437228087191611 0.7719413421978378 -17.140610201457 12.652082893442646 10.46456162150184 0.0 0.0 0.0 7.784627062162499 -2.5208248313675896 22.593915629132532 -19.657745593142295 -21.944292885578122 -52.61743569129785 2.7841349103939175 -0.6930125795952752 4.843194504271057 0.0 0.0 0.0 4.473621407670699 -0.11941347247903096 1.3777842712697983 -3.580958787400591 29.987810259398493 84.94765062579131 -23.83762565964632 -3.053652198710244 23.173649185585163 0.0 0.0 0.0
-520.6208474462321 166.90452426930045 750.2449713634865 32.00388640792416 -31.942946732282927 -48.27506385516348 -0.8607297435314888 6.416074340458868 0.7693667357931941 -17.14384361405433 12.672808582983368 10.46434339483983 0.0 0.0 0.0 7.7871989060563065 -2.52101981008989 22.592807197480465 -19.66000345639537 -21.94780093971105 -52.61999374154947 2.7880407984289595 -0.6939455466117397 4.841479567661352 0.0 0.0 0.0 4.471998674455559 -0.11936671483842225 1.3776691662119882 -3.5758160633938787 29.974621529921677 84.94748932402128 -23.829879683436257 -3.053220630338253 23.173470082770606 0.0 0.0 0.0
-520.6919604622684 166.92718757937814 750.298091537432 31.986569926782323 -31.919693541897953 -48.26072472452616 -0.8568935698933264 6.394232611090671 0.7667220674098547 -17.147411876880255 12.694501856051138 10.46422857884552 0.0 0.0 0.0 7.788508785595517 -2.520894190840565 22.590591435771227 -19.661656996825528 -21.95032943281044 -52.62175770326809 2.7909719045857084 -0.6946406744560434 4.839998285410778 0.0 0.0 0.0 4.4699872083911965 -0.11926877687946104 1.3765728105911483 -3.5706747618669046 29.961945072859027 84.94790602533203 -23.82247814936488 -3.0527991304614805 23.17336434652636 0.0 0.0 0.0
-520.7607015897124 166.95179852665635 750.3501585341965 31.969625215881937 -31.89641308698021 -48.24618737820768 -0.8531473860001932 6.372183200711375 0.7640727433683738 -17.15121404756178 12.71702277298387 10.464168875198036 0.0 0.0 0.0 7.788477994041221 -2.5204199493568322 22.587140013588474 -19.66266000831832 -21.951805530160144 -52.62267287230927 2.793013337592711 -0.6951208924681332 4.838813805535211 0.0 0.0 0.0 4.467572263668682 -0.11911315374574541 1.3743475521738817 -3.565575688111753 29.949928943659902 84.94895184677075 -23.81558699794069 -3.0523948177253812 23.173351201308364 0.0 0.0 0.0
-520.8267520808931 166.97848442729932 750.4010913735613 31.953351936706543 -31.873429512461186 -48.23179943815854 -0.8496149970538844 6.350405263541599 0.7614837074878128 -17.15514083445304 12.740215523452987 10.464112550562024 0.0 0.0 0.0 7.787055573993207 -2.519575085480875 22.582340725048375 -19.662983258466564 -21.952178467600945 -52.622692056329605 2.7942811408662833 -0.6954166360884421 4.837980897209735 0.0 0.0 0.0 4.464747983767641 -0.11889438001219847 1.3708642187092424 -3.560557215927187 29.938708432929065 84.95067038870295 -23.809363211674793 -3.0520146568238027 23.17344719871234 0.0 0.0 0.0
-520.8898152619989 167.007335355972 750.4507947438725 31.938029704159952 -31.85105307078012 -48.217899782936385 -0.8464138904645155 6.329364154360389 0.7590176901864301 -17.15907867306359 12.763912335627758 10.46400658052111 0.0 0.0 0.0 7.784220126385908 -2.5183445351977376 22.576102285942426 -19.6626167913491 -21.951423036586007 -52.62177789264406 2.7949186824520735 -0.6955649268301335 4.837545375456599 0.0 0.0 0.0 4.461518275397521 -0.11860826736842853 1.366017203442848 -3.5556560488556666 29.928404918574135 84.95309419764683 -23.803949243940984 -3.051665052104159 23.17366675797211 0.0 0.0 0.0
-520.9496243914175 167.03839971043564 750.4991646337897 31.923911214021228 -31.82957208729693 -48.2048107519582 -0.8436520642486584 6.309499297539751 0.7567335351212179 -17.16291386657241 12.787937873552654 10.463798774580054 0.0 0.0 0.0 7.779980924915086 -2.5167209279838145 22.56835874966199 -19.66157163610445 -21.94954243035619 -52.6199052735751 2.7950918979210964 -0.6956081810225746 4.83754399309501 0.0 0.0 0.0 4.457897444560449 -0.11825210256845024 1.3597288344597498 -3.550907851832104 29.919124872128748 84.95624177582363 -23.799467949865655 -3.051351506666495 23.174022449822832 0.0 0.0 0.0
-521.0059504816503 167.07168123695905 750.5460946665227 31.91121630125895 -31.80924584000581 -48.19283082457358 -0.8414252114581512 6.2912128665134714 0.7546846503042618 -17.166536639943306 12.812114107932777 10.46343978869532 0.0 0.0 0.0 7.774378370013406 -2.5147051633050843 22.559073332677674 -19.659880901459438 -21.946570363408444 -52.617063709627985 2.7949835676314265 -0.6955927897525994 4.8380046950775295 0.0 0.0 0.0 4.453910462719907 -0.117824792670905 1.3519528122722506 -3.546347631181778 29.91095884263834 84.96011529332816 -23.796018194484756 -3.051078357120429 23.174525025684375 0.0 0.0 0.0
